<svg class="animated" id="freepik_stories-credit-card-payment" xmlns="http://www.w3.org/2000/svg" viewBox="0 0 500 500" version="1.1" xmlns:xlink="http://www.w3.org/1999/xlink" xmlns:svgjs="http://svgjs.com/svgjs"><style>svg#freepik_stories-credit-card-payment:not(.animated) .animable {opacity: 0;}svg#freepik_stories-credit-card-payment.animated #freepik--background-simple--inject-2 {animation: 1.5s Infinite  linear floating;animation-delay: 0s;}svg#freepik_stories-credit-card-payment.animated #freepik--Ground--inject-2 {animation: 3s Infinite  linear shake;animation-delay: 0s;}svg#freepik_stories-credit-card-payment.animated #freepik--Plants--inject-2 {animation: 1.5s Infinite  linear wind;animation-delay: 0s;}            @keyframes floating {                0% {                    opacity: 1;                    transform: translateY(0px);                }                50% {                    transform: translateY(-10px);                }                100% {                    opacity: 1;                    transform: translateY(0px);                }            }                    @keyframes shake {                10%, 90% {                    transform: translate3d(-1px, 0, 0);                  }                  20%, 80% {                    transform: translate3d(2px, 0, 0);                  }                  30%, 50%, 70% {                    transform: translate3d(-4px, 0, 0);                  }                  40%, 60% {                    transform: translate3d(4px, 0, 0);                  }            }                    @keyframes wind {                0% {                    transform: rotate( 0deg );                }                25% {                    transform: rotate( 1deg );                }                75% {                    transform: rotate( -1deg );                }            }        </style><g id="freepik--background-simple--inject-2" style="transform-origin: 237.284px 226.142px 0px;" class="animable"><rect x="217.89" y="271.25" width="51.36" height="44.12" style="fill: #407BFF; transform-origin: 243.57px 293.31px 0px;" id="elsgw7xn2mat" class="animable"></rect><rect x="217.89" y="218.8" width="51.36" height="44.12" style="fill: #407BFF; transform-origin: 243.57px 240.86px 0px;" id="el72sgv4k9q3q" class="animable"></rect><rect x="217.89" y="113" width="51.36" height="45.02" style="fill: #407BFF; transform-origin: 243.57px 135.51px 0px;" id="elg6o2h7g2bls" class="animable"></rect><rect x="217.89" y="166.35" width="51.36" height="44.12" style="fill: #407BFF; transform-origin: 243.57px 188.41px 0px;" id="elc94i3va4jsf" class="animable"></rect><path d="M416.38,169.18H372.82v-60q-2.86-2.61-5.82-5.08v72.07h52.38Q418,172.66,416.38,169.18Z" style="fill: #407BFF; transform-origin: 393.19px 140.135px 0px;" id="elroarm7p69uo" class="animable"></path><path d="M387,123.65c-3.82-4.35-7.85-8.51-12-12.47h-.15v56h40.65A185.77,185.77,0,0,0,387,123.65Z" style="fill: #407BFF; transform-origin: 395.175px 139.18px 0px;" id="elxwahfg5msis" class="animable"></path><rect x="278.48" y="323.7" width="51.36" height="45.93" style="fill: #407BFF; transform-origin: 304.16px 346.665px 0px;" id="elkfm34kbbp8" class="animable"></rect><path d="M169,114.65c-1.94,1.55-3.87,3.1-5.82,4.63v49.9H110.82V152.11c-2,1.12-3.92,2.24-5.82,3.36v20.71h64Z" style="fill: #407BFF; transform-origin: 137px 145.415px 0px;" id="el107k34zbzla" class="animable"></path><path d="M161.18,120.85c-10.09,7.88-20.4,15.28-31.51,21.07C123.82,145,118.19,148,112.82,151v16.2h48.36Z" style="fill: #407BFF; transform-origin: 137px 144.025px 0px;" id="elsmjs5pvpcy" class="animable"></path><path d="M217.89,341.83c17.43,6.22,33.09,18,49.87,27.8h1.49V323.7H217.89Z" style="fill: #407BFF; transform-origin: 243.57px 346.665px 0px;" id="elk0ja9aem85n" class="animable"></path><rect x="278.48" y="166.35" width="51.36" height="44.12" style="fill: #407BFF; transform-origin: 304.16px 188.41px 0px;" id="elmthwx2srhbh" class="animable"></rect><rect x="278.48" y="218.8" width="51.36" height="44.12" style="fill: #407BFF; transform-origin: 304.16px 240.86px 0px;" id="el6i1llrohv46" class="animable"></rect><path d="M338,104H209.76V339.4c2.07.49,4.11,1.08,6.13,1.75V321.7h55.36v49.93h0a144.75,144.75,0,0,0,14.17,7H338ZM271.25,317.37H215.89V269.25h55.36Zm0-52.45H215.89V216.8h55.36Zm0-52.45H215.89V164.35h55.36Zm0-52.45H215.89V111h55.36Zm60.59,211.61H276.48V321.7h55.36Zm0-54.26H276.48V269.25h55.36Zm0-52.45H276.48V216.8h55.36Zm0-52.45H276.48V164.35h55.36Zm0-52.45H276.48V111h55.36Z" style="fill: #407BFF; transform-origin: 273.88px 241.315px 0px;" id="el4bl80zei57j" class="animable"></path><rect x="278.48" y="271.25" width="51.36" height="44.12" style="fill: #407BFF; transform-origin: 304.16px 293.31px 0px;" id="elfhxrnd74bkt" class="animable"></rect><path d="M365,178.18V102.47c-26.38-21.4-58.52-34.85-92.68-35.95C229,65.12,200,89.62,171,113v65.15H103v-21.5c-32.34,19.47-54,40.81-58.54,79-5.74,47.88-1,92.71,38.3,115.13s63.18-15.28,113.92-13.25a68.22,68.22,0,0,1,11.08,1.4V102H340V380.67H290.49c15,5.46,31.51,7.41,51.23,1.72,41.89-12.07,72.95-56.32,84.63-98.89,9.9-36.1,6.55-72.71-6.17-105.32Z" style="fill: #407BFF; transform-origin: 237.284px 226.142px 0px;" id="elb537j1rf9x" class="animable"></path><rect x="278.48" y="113" width="51.36" height="45.02" style="fill: #407BFF; transform-origin: 304.16px 135.51px 0px;" id="eleac2hc9bvbk" class="animable"></rect><g id="elag411mfumnf"><g style="opacity: 0.7; transform-origin: 237.284px 226.142px 0px;" class="animable" id="eltq045hn2dda"><rect x="217.89" y="271.25" width="51.36" height="44.12" style="fill: rgb(255, 255, 255); transform-origin: 243.57px 293.31px 0px;" id="elg84vvxvtbot" class="animable"></rect><rect x="217.89" y="218.8" width="51.36" height="44.12" style="fill: rgb(255, 255, 255); transform-origin: 243.57px 240.86px 0px;" id="elri3pjgw0uz9" class="animable"></rect><rect x="217.89" y="113" width="51.36" height="45.02" style="fill: rgb(255, 255, 255); transform-origin: 243.57px 135.51px 0px;" id="elicsv1jz2m47" class="animable"></rect><rect x="217.89" y="166.35" width="51.36" height="44.12" style="fill: rgb(255, 255, 255); transform-origin: 243.57px 188.41px 0px;" id="el55v11hvhj0x" class="animable"></rect><path d="M416.38,169.18H372.82v-60q-2.86-2.61-5.82-5.08v72.07h52.38Q418,172.66,416.38,169.18Z" style="fill: rgb(255, 255, 255); transform-origin: 393.19px 140.135px 0px;" id="elajyn9kumizl" class="animable"></path><path d="M387,123.65c-3.82-4.35-7.85-8.51-12-12.47h-.15v56h40.65A185.77,185.77,0,0,0,387,123.65Z" style="fill: rgb(255, 255, 255); transform-origin: 395.175px 139.18px 0px;" id="elgourvz3e9b7" class="animable"></path><rect x="278.48" y="323.7" width="51.36" height="45.93" style="fill: rgb(255, 255, 255); transform-origin: 304.16px 346.665px 0px;" id="elqfo11yebuzl" class="animable"></rect><path d="M169,114.65c-1.94,1.55-3.87,3.1-5.82,4.63v49.9H110.82V152.11c-2,1.12-3.92,2.24-5.82,3.36v20.71h64Z" style="fill: rgb(255, 255, 255); transform-origin: 137px 145.415px 0px;" id="el9w1bfuymy1v" class="animable"></path><path d="M161.18,120.85c-10.09,7.88-20.4,15.28-31.51,21.07C123.82,145,118.19,148,112.82,151v16.2h48.36Z" style="fill: rgb(255, 255, 255); transform-origin: 137px 144.025px 0px;" id="elobeeszq1yni" class="animable"></path><path d="M217.89,341.83c17.43,6.22,33.09,18,49.87,27.8h1.49V323.7H217.89Z" style="fill: rgb(255, 255, 255); transform-origin: 243.57px 346.665px 0px;" id="elyjqsrd42u3" class="animable"></path><rect x="278.48" y="166.35" width="51.36" height="44.12" style="fill: rgb(255, 255, 255); transform-origin: 304.16px 188.41px 0px;" id="el7k0kwbm5voy" class="animable"></rect><rect x="278.48" y="218.8" width="51.36" height="44.12" style="fill: rgb(255, 255, 255); transform-origin: 304.16px 240.86px 0px;" id="elyy7t9a24i4" class="animable"></rect><path d="M338,104H209.76V339.4c2.07.49,4.11,1.08,6.13,1.75V321.7h55.36v49.93h0a144.75,144.75,0,0,0,14.17,7H338ZM271.25,317.37H215.89V269.25h55.36Zm0-52.45H215.89V216.8h55.36Zm0-52.45H215.89V164.35h55.36Zm0-52.45H215.89V111h55.36Zm60.59,211.61H276.48V321.7h55.36Zm0-54.26H276.48V269.25h55.36Zm0-52.45H276.48V216.8h55.36Zm0-52.45H276.48V164.35h55.36Zm0-52.45H276.48V111h55.36Z" style="fill: rgb(255, 255, 255); transform-origin: 273.88px 241.315px 0px;" id="elagrm9q1xvx" class="animable"></path><rect x="278.48" y="271.25" width="51.36" height="44.12" style="fill: rgb(255, 255, 255); transform-origin: 304.16px 293.31px 0px;" id="el8r3eawbrda5" class="animable"></rect><path d="M365,178.18V102.47c-26.38-21.4-58.52-34.85-92.68-35.95C229,65.12,200,89.62,171,113v65.15H103v-21.5c-32.34,19.47-54,40.81-58.54,79-5.74,47.88-1,92.71,38.3,115.13s63.18-15.28,113.92-13.25a68.22,68.22,0,0,1,11.08,1.4V102H340V380.67H290.49c15,5.46,31.51,7.41,51.23,1.72,41.89-12.07,72.95-56.32,84.63-98.89,9.9-36.1,6.55-72.71-6.17-105.32Z" style="fill: rgb(255, 255, 255); transform-origin: 237.284px 226.142px 0px;" id="el952zuxjcj56" class="animable"></path><rect x="278.48" y="113" width="51.36" height="45.02" style="fill: rgb(255, 255, 255); transform-origin: 304.16px 135.51px 0px;" id="elcp3g5thcqfg" class="animable"></rect></g></g></g><g id="freepik--Ground--inject-2" style="transform-origin: 249.45px 413.14px 0px;" class="animable"><ellipse cx="249.45" cy="413.14" rx="209.8" ry="24.42" style="fill: #407BFF; transform-origin: 249.45px 413.14px 0px;" id="elx3yei31rft" class="animable"></ellipse><g id="el48z35tnhz3k"><ellipse cx="249.45" cy="413.14" rx="209.8" ry="24.42" style="fill: rgb(255, 255, 255); opacity: 0.5; transform-origin: 249.45px 413.14px 0px;" class="animable" id="el54ctke8l26b"></ellipse></g></g><g id="freepik--Plants--inject-2" style="transform-origin: 419.762px 315.762px 0px;" class="animable"><path d="M388.37,262.88c2,.88,6.9.77,6.91.77s-1.06-3.21-1.15-3.41c-1.07-2.25-4.47-6-7.24-5.59a3.3,3.3,0,0,0-2.65,4.14C384.7,260.71,386.66,262.14,388.37,262.88Z" style="fill: #407BFF; transform-origin: 389.7px 259.137px 0px;" id="el9d3r80xsdd" class="animable"></path><path d="M452.58,246.2c-2.78-.3-6.08,3.5-7.09,5.78-.09.2-1.11,3.43-1.06,3.43h.06c-.52.6-1.08,1.25-1.67,2-1.09,1.34-2.3,2.86-3.52,4.6a58.82,58.82,0,0,0-3.64,5.8,43.06,43.06,0,0,0-3.11,7s0,.06,0,.09c0-.82,0-3.11,0-3.28-.32-2.48-2.39-7.07-5.14-7.58a3.32,3.32,0,0,0-3.81,3.11c-.16,2,1.27,3.93,2.65,5.18,1.57,1.39,5.92,2.75,6.27,2.86a57.06,57.06,0,0,0-1.84,7.58c-.27,1.5-.49,3-.69,4.53,0-.71,0-1.34,0-1.43-.32-2.47-2.39-7.06-5.14-7.57a3.3,3.3,0,0,0-3.81,3.11c-.16,2,1.26,3.93,2.65,5.17s5.1,2.49,6.08,2.8c-.08.59-.15,1.17-.22,1.75-.34,2.8-.66,5.6-1.06,8.34-.14,1-.32,1.91-.49,2.85,0-.63,0-1.16,0-1.24-.32-2.47-2.39-7.06-5.14-7.57a3.31,3.31,0,0,0-3.81,3.11c-.16,2,1.26,3.93,2.65,5.17s4.74,2.37,5.9,2.75c-.21,1-.41,1.92-.65,2.85-.18.62-.31,1.24-.52,1.86s-.4,1.23-.59,1.84c-.42,1.15-.85,2.34-1.28,3.46-.3.77-.6,1.51-.9,2.25.15-1,.41-2.84.41-3a12.79,12.79,0,0,0-1.72-6.24,3.54,3.54,0,0,0,0-.73,3.31,3.31,0,0,0-4-2.81c-2.7.72-4.41,5.46-4.54,7.95,0,.15.09,1.75.17,2.76-.14-.59-.26-1.16-.41-1.76-.28-1.19-.6-2.38-.93-3.65-.19-.61-.38-1.23-.56-1.85s-.44-1.25-.66-1.89c-.53-1.45-1.14-2.91-1.79-4.36,1-.25,4.74-1.19,6.23-2.33s3-3,3-5a3.3,3.3,0,0,0-3.57-3.38c-2.78.3-5.19,4.72-5.69,7.16,0,.16-.2,1.95-.27,2.94-.4-.87-.79-1.74-1.22-2.61-1.24-2.5-2.57-5-3.89-7.48-.41-.76-.8-1.52-1.2-2.29.37-.08,4.79-1.11,6.45-2.38,1.48-1.14,3.05-3,3-5a3.31,3.31,0,0,0-3.57-3.39c-2.78.3-5.19,4.73-5.69,7.17,0,.18-.27,2.76-.3,3.42-.88-1.68-1.73-3.37-2.51-5.06a58.21,58.21,0,0,1-2.72-7c.17,0,4.79-1.09,6.49-2.4,1.48-1.13,3-3,3-5a3.3,3.3,0,0,0-3.57-3.38c-2.78.3-5.18,4.72-5.69,7.17,0,.19-.29,3-.3,3.47,0-.14-.1-.28-.14-.42a42.51,42.51,0,0,1-1.41-7.43c-.16-1.39-.23-2.72-.27-4,.88-.11,4.89-.64,6.56-1.65s3.35-2.64,3.55-4.6A3.29,3.29,0,0,0,402.6,254c-2.79,0-5.68,4.12-6.44,6.5-.05.12-.33,1.48-.52,2.48,0-.59,0-1.2,0-1.76,0-2.11.13-4,.27-5.76.08-1,.17-1.85.27-2.67.81-.55,4-2.83,5-4.46s1.76-3.89,1-5.72a3.31,3.31,0,0,0-4.55-1.87C395.2,242,394.55,247,395,249.5c0,.21,1,3.47,1,3.44l0,0c-.11.78-.21,1.63-.31,2.56-.17,1.71-.35,3.64-.4,5.76a59.5,59.5,0,0,0,.16,6.85,43.74,43.74,0,0,0,1.27,7.56l0,.09c-.44-.69-1.73-2.58-1.85-2.72-1.63-1.88-5.89-4.57-8.46-3.48a3.31,3.31,0,0,0-1.47,4.7c.95,1.73,3.23,2.58,5.07,2.85,2.08.3,6.45-1,6.8-1.07a58.83,58.83,0,0,0,2.65,7.34c.61,1.4,1.26,2.78,1.92,4.16-.39-.58-.76-1.1-.81-1.17-1.64-1.89-5.9-4.57-8.47-3.48a3.3,3.3,0,0,0-1.46,4.69c.95,1.73,3.22,2.59,5.06,2.85s5.63-.73,6.61-1c.27.53.52,1.06.79,1.58,1.26,2.52,2.54,5,3.71,7.54.42.88.79,1.76,1.17,2.64-.35-.51-.66-.95-.71-1-1.63-1.89-5.89-4.57-8.46-3.48a3.31,3.31,0,0,0-1.47,4.7c.95,1.72,3.23,2.58,5.07,2.85s5.26-.64,6.43-1c.36.92.73,1.83,1,2.74.19.62.43,1.2.59,1.84s.35,1.24.52,1.86c.28,1.19.59,2.42.84,3.59.18.81.33,1.59.49,2.37-.4-.88-1.22-2.59-1.31-2.72-1.33-2.11-5.13-5.41-7.84-4.72a3.3,3.3,0,0,0-2.16,4.41c.68,1.86,2.8,3,4.58,3.59,2,.6,6.3.05,6.84,0,.26,1.3.5,2.56.71,3.76.73,4.14,1.19,7.63,1.47,10.06,0,.44.09.82.13,1.19h-8.41l3.07,59.88h14.32l3.07-59.88H419l.18-.36c1.07-2.24,2.56-5.46,4.17-9.39.51-1.25,1-2.58,1.56-4,.52.11,4.82,1,6.82.53,1.82-.41,4-1.44,4.83-3.24a3.29,3.29,0,0,0-1.82-4.56c-2.65-.89-6.69,2.11-8.17,4.12-.09.12-.89,1.51-1.38,2.39.21-.56.42-1.11.63-1.69.42-1.15.81-2.31,1.23-3.56.18-.61.37-1.23.55-1.85s.33-1.29.5-1.93c.36-1.52.65-3.06.91-4.63,1,.37,4.61,1.62,6.48,1.49s4.19-.82,5.26-2.47a3.31,3.31,0,0,0-1.11-4.79c-2.48-1.28-6.93,1.08-8.7,2.84-.11.11-1.23,1.51-1.84,2.3.15-.94.3-1.89.42-2.84.34-2.77.61-5.59.88-8.39.08-.86.18-1.72.27-2.57.35.13,4.6,1.71,6.7,1.57,1.85-.13,4.18-.82,5.26-2.47a3.3,3.3,0,0,0-1.11-4.79c-2.48-1.28-6.93,1.08-8.7,2.84-.13.13-1.75,2.16-2.14,2.69.2-1.89.42-3.76.71-5.61a57.28,57.28,0,0,1,1.61-7.37c.16.06,4.59,1.73,6.73,1.58,1.86-.13,4.19-.81,5.27-2.46a3.31,3.31,0,0,0-1.11-4.79c-2.49-1.28-6.94,1.08-8.7,2.84-.14.13-1.88,2.31-2.17,2.73,0-.14.07-.29.11-.43a43.63,43.63,0,0,1,2.92-7c.64-1.24,1.32-2.39,2-3.5.79.4,4.44,2.16,6.38,2.24s4.25-.35,5.5-1.87a3.29,3.29,0,0,0-.58-4.88c-2.32-1.55-7,.31-8.95,1.86-.11.09-1.09,1.07-1.8,1.79.32-.5.63-1,.95-1.48,1.16-1.76,2.34-3.3,3.4-4.65.6-.77,1.17-1.45,1.7-2.08,1,0,4.93-.14,6.66-.95s3.61-2.27,4-4.19A3.3,3.3,0,0,0,452.58,246.2Zm-30.74,74.59c-1.68,3.86-3.23,7-4.34,9.21-.22.44-.42.83-.61,1.19h-.18c-.06-.43-.12-.9-.19-1.42-.34-2.46-.87-6-1.7-10.14-.26-1.31-.56-2.72-.89-4.16a36.59,36.59,0,0,0,3.82-1.79c1.43,1.55,5.09,3.36,5.57,3.59C422.82,318.49,422.32,319.68,421.84,320.79Z" style="fill: #407BFF; transform-origin: 419.941px 315.762px 0px;" id="eluksi7qrjw8h" class="animable"></path><path d="M438,264s.89-3.26.92-3.47c.34-2.47-.45-7.45-3-8.66a3.31,3.31,0,0,0-4.5,2c-.67,1.85.18,4.13,1.2,5.69C433.79,261.35,437.94,264,438,264Z" style="fill: #407BFF; transform-origin: 435.088px 257.791px 0px;" id="elp2ncb4q6s9" class="animable"></path><g id="elor7qk0sri4"><g style="opacity: 0.5; transform-origin: 419.762px 315.762px 0px;" class="animable" id="elsvq04a0pd6l"><path d="M388.37,262.88c2,.88,6.9.77,6.91.77s-1.06-3.21-1.15-3.41c-1.07-2.25-4.47-6-7.24-5.59a3.3,3.3,0,0,0-2.65,4.14C384.7,260.71,386.66,262.14,388.37,262.88Z" style="fill: rgb(255, 255, 255); transform-origin: 389.7px 259.137px 0px;" id="elg8mnslh8rd" class="animable"></path><path d="M452.58,246.2c-2.78-.3-6.08,3.5-7.09,5.78-.09.2-1.11,3.43-1.06,3.43h.06c-.52.6-1.08,1.25-1.67,2-1.09,1.34-2.3,2.86-3.52,4.6a58.82,58.82,0,0,0-3.64,5.8,43.06,43.06,0,0,0-3.11,7s0,.06,0,.09c0-.82,0-3.11,0-3.28-.32-2.48-2.39-7.07-5.14-7.58a3.32,3.32,0,0,0-3.81,3.11c-.16,2,1.27,3.93,2.65,5.18,1.57,1.39,5.92,2.75,6.27,2.86a57.06,57.06,0,0,0-1.84,7.58c-.27,1.5-.49,3-.69,4.53,0-.71,0-1.34,0-1.43-.32-2.47-2.39-7.06-5.14-7.57a3.3,3.3,0,0,0-3.81,3.11c-.16,2,1.26,3.93,2.65,5.17s5.1,2.49,6.08,2.8c-.08.59-.15,1.17-.22,1.75-.34,2.8-.66,5.6-1.06,8.34-.14,1-.32,1.91-.49,2.85,0-.63,0-1.16,0-1.24-.32-2.47-2.39-7.06-5.14-7.57a3.31,3.31,0,0,0-3.81,3.11c-.16,2,1.26,3.93,2.65,5.17s4.74,2.37,5.9,2.75c-.21,1-.41,1.92-.65,2.85-.18.62-.31,1.24-.52,1.86s-.4,1.23-.59,1.84c-.42,1.15-.85,2.34-1.28,3.46-.3.77-.6,1.51-.9,2.25.15-1,.41-2.84.41-3a12.79,12.79,0,0,0-1.72-6.24,3.54,3.54,0,0,0,0-.73,3.31,3.31,0,0,0-4-2.81c-2.7.72-4.41,5.46-4.54,7.95,0,.15.09,1.75.17,2.76-.14-.59-.26-1.16-.41-1.76-.28-1.19-.6-2.38-.93-3.65-.19-.61-.38-1.23-.56-1.85s-.44-1.25-.66-1.89c-.53-1.45-1.14-2.91-1.79-4.36,1-.25,4.74-1.19,6.23-2.33s3-3,3-5a3.3,3.3,0,0,0-3.57-3.38c-2.78.3-5.19,4.72-5.69,7.16,0,.16-.2,1.95-.27,2.94-.4-.87-.79-1.74-1.22-2.61-1.24-2.5-2.57-5-3.89-7.48-.41-.76-.8-1.52-1.2-2.29.37-.08,4.79-1.11,6.45-2.38,1.48-1.14,3.05-3,3-5a3.31,3.31,0,0,0-3.57-3.39c-2.78.3-5.19,4.73-5.69,7.17,0,.18-.27,2.76-.3,3.42-.88-1.68-1.73-3.37-2.51-5.06a58.21,58.21,0,0,1-2.72-7c.17,0,4.79-1.09,6.49-2.4,1.48-1.13,3-3,3-5a3.3,3.3,0,0,0-3.57-3.38c-2.78.3-5.18,4.72-5.69,7.17,0,.19-.29,3-.3,3.47,0-.14-.1-.28-.14-.42a42.51,42.51,0,0,1-1.41-7.43c-.16-1.39-.23-2.72-.27-4,.88-.11,4.89-.64,6.56-1.65s3.35-2.64,3.55-4.6A3.29,3.29,0,0,0,402.6,254c-2.79,0-5.68,4.12-6.44,6.5-.05.12-.33,1.48-.52,2.48,0-.59,0-1.2,0-1.76,0-2.11.13-4,.27-5.76.08-1,.17-1.85.27-2.67.81-.55,4-2.83,5-4.46s1.76-3.89,1-5.72a3.31,3.31,0,0,0-4.55-1.87C395.2,242,394.55,247,395,249.5c0,.21,1,3.47,1,3.44l0,0c-.11.78-.21,1.63-.31,2.56-.17,1.71-.35,3.64-.4,5.76a59.5,59.5,0,0,0,.16,6.85,43.74,43.74,0,0,0,1.27,7.56l0,.09c-.44-.69-1.73-2.58-1.85-2.72-1.63-1.88-5.89-4.57-8.46-3.48a3.31,3.31,0,0,0-1.47,4.7c.95,1.73,3.23,2.58,5.07,2.85,2.08.3,6.45-1,6.8-1.07a58.83,58.83,0,0,0,2.65,7.34c.61,1.4,1.26,2.78,1.92,4.16-.39-.58-.76-1.1-.81-1.17-1.64-1.89-5.9-4.57-8.47-3.48a3.3,3.3,0,0,0-1.46,4.69c.95,1.73,3.22,2.59,5.06,2.85s5.63-.73,6.61-1c.27.53.52,1.06.79,1.58,1.26,2.52,2.54,5,3.71,7.54.42.88.79,1.76,1.17,2.64-.35-.51-.66-.95-.71-1-1.63-1.89-5.89-4.57-8.46-3.48a3.31,3.31,0,0,0-1.47,4.7c.95,1.72,3.23,2.58,5.07,2.85s5.26-.64,6.43-1c.36.92.73,1.83,1,2.74.19.62.43,1.2.59,1.84s.35,1.24.52,1.86c.28,1.19.59,2.42.84,3.59.18.81.33,1.59.49,2.37-.4-.88-1.22-2.59-1.31-2.72-1.33-2.11-5.13-5.41-7.84-4.72a3.3,3.3,0,0,0-2.16,4.41c.68,1.86,2.8,3,4.58,3.59,2,.6,6.3.05,6.84,0,.26,1.3.5,2.56.71,3.76.73,4.14,1.19,7.63,1.47,10.06,0,.44.09.82.13,1.19h-8.41l3.07,59.88h14.32l3.07-59.88H419l.18-.36c1.07-2.24,2.56-5.46,4.17-9.39.51-1.25,1-2.58,1.56-4,.52.11,4.82,1,6.82.53,1.82-.41,4-1.44,4.83-3.24a3.29,3.29,0,0,0-1.82-4.56c-2.65-.89-6.69,2.11-8.17,4.12-.09.12-.89,1.51-1.38,2.39.21-.56.42-1.11.63-1.69.42-1.15.81-2.31,1.23-3.56.18-.61.37-1.23.55-1.85s.33-1.29.5-1.93c.36-1.52.65-3.06.91-4.63,1,.37,4.61,1.62,6.48,1.49s4.19-.82,5.26-2.47a3.31,3.31,0,0,0-1.11-4.79c-2.48-1.28-6.93,1.08-8.7,2.84-.11.11-1.23,1.51-1.84,2.3.15-.94.3-1.89.42-2.84.34-2.77.61-5.59.88-8.39.08-.86.18-1.72.27-2.57.35.13,4.6,1.71,6.7,1.57,1.85-.13,4.18-.82,5.26-2.47a3.3,3.3,0,0,0-1.11-4.79c-2.48-1.28-6.93,1.08-8.7,2.84-.13.13-1.75,2.16-2.14,2.69.2-1.89.42-3.76.71-5.61a57.28,57.28,0,0,1,1.61-7.37c.16.06,4.59,1.73,6.73,1.58,1.86-.13,4.19-.81,5.27-2.46a3.31,3.31,0,0,0-1.11-4.79c-2.49-1.28-6.94,1.08-8.7,2.84-.14.13-1.88,2.31-2.17,2.73,0-.14.07-.29.11-.43a43.63,43.63,0,0,1,2.92-7c.64-1.24,1.32-2.39,2-3.5.79.4,4.44,2.16,6.38,2.24s4.25-.35,5.5-1.87a3.29,3.29,0,0,0-.58-4.88c-2.32-1.55-7,.31-8.95,1.86-.11.09-1.09,1.07-1.8,1.79.32-.5.63-1,.95-1.48,1.16-1.76,2.34-3.3,3.4-4.65.6-.77,1.17-1.45,1.7-2.08,1,0,4.93-.14,6.66-.95s3.61-2.27,4-4.19A3.3,3.3,0,0,0,452.58,246.2Zm-30.74,74.59c-1.68,3.86-3.23,7-4.34,9.21-.22.44-.42.83-.61,1.19h-.18c-.06-.43-.12-.9-.19-1.42-.34-2.46-.87-6-1.7-10.14-.26-1.31-.56-2.72-.89-4.16a36.59,36.59,0,0,0,3.82-1.79c1.43,1.55,5.09,3.36,5.57,3.59C422.82,318.49,422.32,319.68,421.84,320.79Z" style="fill: rgb(255, 255, 255); transform-origin: 419.941px 315.762px 0px;" id="elhmwgqvojzro" class="animable"></path><path d="M438,264s.89-3.26.92-3.47c.34-2.47-.45-7.45-3-8.66a3.31,3.31,0,0,0-4.5,2c-.67,1.85.18,4.13,1.2,5.69C433.79,261.35,437.94,264,438,264Z" style="fill: rgb(255, 255, 255); transform-origin: 435.088px 257.791px 0px;" id="elwpubyip2hat" class="animable"></path></g></g></g><g id="freepik--character-2--inject-2" style="transform-origin: 313.694px 271.51px 0px;" class="animable"><path d="M315.15,185.85l-29.82,29.82s-14-27.75-15.16-32.47-3.24-9.14-4.13-9.14-8.25-1.77-8.25-1.77-8.85-.59-9.44.29,4.6,4.63,7,7.28,1.95,4.74,6.08,7.1,4.06,1.84,4.06,1.84,10.71,30.8,12.67,35.71a9.62,9.62,0,0,0,3.73,4.39,5.53,5.53,0,0,0,6.78-.58l20.29-18.55s9.17-9.83,9.83-18S315.15,185.85,315.15,185.85Z" style="fill: rgb(255, 255, 255); stroke: rgb(38, 50, 56); stroke-linecap: round; stroke-linejoin: round; transform-origin: 283.581px 200.946px 0px;" id="el3idwacpzxzd" class="animable"></path><rect x="239.14" y="165.23" width="23.61" height="14.67" rx="1.92" style="fill: #407BFF; stroke: rgb(38, 50, 56); stroke-linecap: round; stroke-linejoin: round; transform-origin: 250.945px 172.565px 0px;" id="elj0lzk0ptqr8" class="animable"></rect><rect x="239.14" y="167.15" width="23.61" height="3.4" style="fill: rgb(38, 50, 56); transform-origin: 250.945px 168.85px 0px;" id="elnnzduquiy" class="animable"></rect><path d="M267.94,180.28s-2.14-4-2.94-4-9.6-2.4-10.93-2.14,0,2.4,1.33,2.67,6.67,3.2,6.67,3.2.53,5.87,4.53,6.94" style="fill: rgb(255, 255, 255); stroke: rgb(38, 50, 56); stroke-linecap: round; stroke-linejoin: round; transform-origin: 260.73px 180.535px 0px;" id="elus75u7hwkyi" class="animable"></path><path d="M377.46,412.76c0,2.6-16.67,4.7-37.24,4.7s-37.24-2.1-37.24-4.7,16.67-4.7,37.24-4.7S377.46,410.17,377.46,412.76Z" style="fill: rgb(38, 50, 56); transform-origin: 340.22px 412.76px 0px;" id="elrqvtr6o51cj" class="animable"></path><path d="M305.62,301.89s8.16,29.1,8.75,38.54,2.31,36.57,3.06,48.36-4.83,17.29-7.09,19-9.53,5.34-6.73,5.95,14.18-.5,17.52-3.87,8.57-8,9.14-11.63-4.26-4.87-4.76-12.73,3.72-28.66,4.23-39.35-5.55-25.31-6-32.79-.5-14.18-.5-14.18Z" style="fill: rgb(255, 255, 255); stroke: rgb(38, 50, 56); stroke-linecap: round; stroke-linejoin: round; transform-origin: 316.647px 356.545px 0px;" id="eloip26sd5rd7" class="animable"></path><polygon points="331.79 402.02 331.01 412.25 328.66 412.25 326.83 405.99 331.79 402.02" style="fill: #407BFF; stroke: rgb(38, 50, 56); stroke-linecap: round; stroke-linejoin: round; transform-origin: 329.31px 407.135px 0px;" id="el37lu5padr8" class="animable"></polygon><path d="M303.38,413.64c2.76.79,14.18.39,17.73-2.76s9.89-5.32,10.68-8.86c.34-1.54-.51-3.11-1.58-5a24.87,24.87,0,0,1-4.16,5.61c-3.66,3.66-11,6.79-11,6.79l-4.61-1.26C308.11,409.7,300.62,412.85,303.38,413.64Z" style="fill: #407BFF; stroke: rgb(38, 50, 56); stroke-linecap: round; stroke-linejoin: round; transform-origin: 317.322px 405.505px 0px;" id="el27asag29lp4" class="animable"></path><path d="M315.85,304.3s6.31,29.55,6.31,39v48.47c0,11.82-5.91,16.94-8.28,18.52S304,415,306.79,415.8s14.19.4,17.73-2.75,9.89-5.32,10.68-8.87-4.77-7.29-4.77-15.17,5.52-28.37,6.7-39-3.94-25.61-3.94-33.09.4-14.19.4-14.19Z" style="fill: rgb(255, 255, 255); stroke: rgb(38, 50, 56); stroke-linecap: round; stroke-linejoin: round; transform-origin: 321.742px 359.443px 0px;" id="elu7qkhcpak7" class="animable"></path><path d="M316.54,153.08s-13.1-5.9-12.45-13.76,19.33-13.76,34.08-13.76,21,13.11,21,20.64-7.21,15.73-3.28,23.26,21,8.94,27.3,25.84c4.91,13.11.65,21-4.26,27.52s-5.57,9.83-1,17.37S373.65,271.64,352,272.3s-31.45-21-30.14-36.37,10.15-39.65,11.79-55.37-.1-16.67-5-21.25S316.54,153.08,316.54,153.08Z" style="fill: rgb(38, 50, 56); stroke: rgb(38, 50, 56); stroke-linecap: round; stroke-linejoin: round; transform-origin: 344.717px 198.937px 0px;" id="elntzc9s3ekj" class="animable"></path><path d="M322.35,140s-5.89-3.93-1.47-6.39,13.76-4.91,21.62-3.93" style="fill: none; stroke: rgb(255, 255, 255); stroke-linecap: round; stroke-linejoin: round; transform-origin: 330.868px 134.729px 0px;" id="el8osh2upty37" class="animable"></path><path d="M320.26,141.89s-14.34-5.1-14-1,10.52,8,11.15,5.74-4.78-3.82-4.78-3.82" style="fill: none; stroke: rgb(255, 255, 255); stroke-linecap: round; stroke-linejoin: round; transform-origin: 313.257px 143.295px 0px;" id="elw2boyl3cl9r" class="animable"></path><path d="M326,135.52s3.19-.32,7,7.33,7.33,13.38,14.66,14.33S356.9,155,356.9,155" style="fill: none; stroke: rgb(255, 255, 255); stroke-linecap: round; stroke-linejoin: round; transform-origin: 341.45px 146.439px 0px;" id="elh8p7m0blw69" class="animable"></path><path d="M366.38,180.5a27.37,27.37,0,0,1,5.18,1.85" style="fill: none; stroke: rgb(255, 255, 255); stroke-linecap: round; stroke-linejoin: round; transform-origin: 368.97px 181.425px 0px;" id="elane42q8yml6" class="animable"></path><path d="M344.16,167.38s-.64,4.46,5.73,8.28c3.68,2.21,8.2,3,12.6,4" style="fill: none; stroke: rgb(255, 255, 255); stroke-linecap: round; stroke-linejoin: round; transform-origin: 353.316px 173.52px 0px;" id="el2j4rwsme3o9" class="animable"></path><path d="M355.37,146.13a12.87,12.87,0,0,0,2.8.54" style="fill: none; stroke: rgb(255, 255, 255); stroke-linecap: round; stroke-linejoin: round; transform-origin: 356.77px 146.4px 0px;" id="el6xeorfs1yp9" class="animable"></path><path d="M334.28,133a9.26,9.26,0,0,1,8.28,2.23c2.72,2.3,5.16,6.24,8.77,8.86" style="fill: none; stroke: rgb(255, 255, 255); stroke-linecap: round; stroke-linejoin: round; transform-origin: 342.805px 138.435px 0px;" id="elmewtf8yi27d" class="animable"></path><path d="M335.46,184.87s-19.66-1.64-21.3-.66-4.91,11.14-8.52,15.08-5.24,6.22-4.26,9.5,3.28,20.64,3.28,20.64l-22.28,74.7s9.2,7,32.79,8.31a57.25,57.25,0,0,0,39-12.57l-23.59-68.8s21.3-32.77,22.28-37S335.46,184.87,335.46,184.87Z" style="fill: #407BFF; stroke: rgb(38, 50, 56); stroke-linecap: round; stroke-linejoin: round; transform-origin: 318.275px 248.211px 0px;" id="el6xm4fpcpbr8" class="animable"></path><path d="M316.12,211.67s-.32,4.78,6.37,8.92" style="fill: none; stroke: rgb(38, 50, 56); stroke-linecap: round; stroke-linejoin: round; transform-origin: 319.304px 216.13px 0px;" id="elhvo1e1vcns5" class="animable"></path><line x1="310.06" y1="231.74" x2="304.97" y2="255.32" style="fill: none; stroke: rgb(38, 50, 56); stroke-linecap: round; stroke-linejoin: round; transform-origin: 307.515px 243.53px 0px;" id="elh0tz9ln7vlh" class="animable"></line><line x1="313.57" y1="232.69" x2="312.61" y2="245.12" style="fill: none; stroke: rgb(38, 50, 56); stroke-linecap: round; stroke-linejoin: round; transform-origin: 313.09px 238.905px 0px;" id="elleornj72kug" class="animable"></line><line x1="326.63" y1="232.06" x2="333" y2="257.86" style="fill: none; stroke: rgb(38, 50, 56); stroke-linecap: round; stroke-linejoin: round; transform-origin: 329.815px 244.96px 0px;" id="elrg80vgruai" class="animable"></line><line x1="324.4" y1="233.65" x2="323.45" y2="247.03" style="fill: none; stroke: rgb(38, 50, 56); stroke-linecap: round; stroke-linejoin: round; transform-origin: 323.925px 240.34px 0px;" id="el2cy6h5q933a" class="animable"></line><path d="M333.68,180.56s-6.22-1-10.15,2.29-7.87,12.45-7.87,12.45l12.12-1.64,7.21,8.52s6.56-8.52,6.56-14.74S333.68,180.56,333.68,180.56Z" style="fill: rgb(255, 255, 255); stroke: rgb(38, 50, 56); stroke-linecap: round; stroke-linejoin: round; transform-origin: 328.605px 191.299px 0px;" id="elm5ljm8wioz" class="animable"></path><path d="M384.92,203.54s3.2-3.84,3.31-6.72-.3-2.48-1.38-.71S384.92,203.54,384.92,203.54Z" style="fill: rgb(255, 255, 255); stroke: rgb(38, 50, 56); stroke-linecap: round; stroke-linejoin: round; transform-origin: 386.584px 199.13px 0px;" id="el154yvoe471p" class="animable"></path><line x1="375.43" y1="280.69" x2="357.92" y2="235.58" style="fill: rgb(255, 255, 255); stroke: rgb(38, 50, 56); stroke-linecap: round; stroke-linejoin: round; transform-origin: 366.675px 258.135px 0px;" id="elmdd5xcg000b" class="animable"></line><line x1="371.47" y1="280.34" x2="356.91" y2="233.89" style="fill: rgb(255, 255, 255); stroke: rgb(38, 50, 56); stroke-linecap: round; stroke-linejoin: round; transform-origin: 364.19px 257.115px 0px;" id="eldgq0qr566i7" class="animable"></line><path d="M351.27,192.16S335.68,205,334.52,211.69s8.61.24,8.61.24,4.65,20.93,7,27.21,3.72,10.93,6.52,9.54S375,205,375,205s6.05.23,8.61-.47,3-6,3.25-8.37-1.86-.7-1.86,0-1.63,4.89-2.79,5.35-6.28-2.56-6.28-2.56,4.88-.93,4.88-2.32-.23-1.63-1.62-.93a22.8,22.8,0,0,1-7,2.09c-2.56.23-3.49,2.79-3.49,5.58s-1.16,4-2.56,8.61-10.25,20.62-10.25,20.62-3-22.72-2.77-28.53S355.45,193.09,351.27,192.16Z" style="fill: rgb(255, 255, 255); stroke: rgb(38, 50, 56); stroke-linecap: round; stroke-linejoin: round; transform-origin: 360.652px 220.544px 0px;" id="el91lzal9yn6" class="animable"></path><line x1="343.13" y1="211.93" x2="341.73" y2="208.44" style="fill: rgb(255, 255, 255); stroke: rgb(38, 50, 56); stroke-linecap: round; stroke-linejoin: round; transform-origin: 342.43px 210.185px 0px;" id="elt1orll780p" class="animable"></line><path d="M370.8,204.25s1.63-2.79,3.26-3.25,8.14.46,8.14.46.66-6.73,1.86-6.74.23,7.21-.46,8.83S375,205,375,205" style="fill: rgb(255, 255, 255); stroke: rgb(38, 50, 56); stroke-linecap: round; stroke-linejoin: round; transform-origin: 377.714px 199.863px 0px;" id="el7oxoz0oof1m" class="animable"></path><polygon points="371.47 280.34 338.85 278.34 330.06 327.53 375.32 328.46 371.47 280.34" style="fill: rgb(255, 255, 255); stroke: rgb(38, 50, 56); stroke-linecap: round; stroke-linejoin: round; transform-origin: 352.69px 303.4px 0px;" id="el0f9dmn9vhei" class="animable"></polygon><polygon points="338.85 278.34 324.17 325.57 327.39 323.87 330.06 327.53 338.85 278.34" style="fill: rgb(38, 50, 56); stroke: rgb(38, 50, 56); stroke-linecap: round; stroke-linejoin: round; transform-origin: 331.51px 302.935px 0px;" id="elyinidivyg2" class="animable"></polygon><polygon points="375.43 280.69 342.77 282.04 339.07 331.86 384.18 328.16 375.43 280.69" style="fill: rgb(255, 255, 255); stroke: rgb(38, 50, 56); stroke-linecap: round; stroke-linejoin: round; transform-origin: 361.625px 306.275px 0px;" id="elhbi02173dns" class="animable"></polygon><polygon points="342.77 282.04 333.01 330.51 336.04 328.5 339.07 331.86 342.77 282.04" style="fill: rgb(38, 50, 56); stroke: rgb(38, 50, 56); stroke-linecap: round; stroke-linejoin: round; transform-origin: 337.89px 306.95px 0px;" id="elschtpry4kq" class="animable"></polygon><line x1="342.77" y1="282.04" x2="355.9" y2="231.54" style="fill: rgb(255, 255, 255); stroke: rgb(38, 50, 56); stroke-linecap: round; stroke-linejoin: round; transform-origin: 349.335px 256.79px 0px;" id="elelq19qpo1xr" class="animable"></line><line x1="338.84" y1="278.34" x2="355.9" y2="232.55" style="fill: rgb(255, 255, 255); stroke: rgb(38, 50, 56); stroke-linecap: round; stroke-linejoin: round; transform-origin: 347.37px 255.445px 0px;" id="elrpfd1cx08x" class="animable"></line><path d="M315.19,151.44s-1.44,11.49-1.44,15.32,4.79,11.49,6.46,12.45,10.3-1.92,10.3-1.92-1.49,3.81-2.45,6.2-4.3,7.9-4.3,11.73,1.91,5.27,5,2.64S336,189,336.2,186.13s4.12-15.06,4.12-15.06l.24-2.64s3.12-2.87,3.83-6,1.44-6.47-1.91-5.51a8.56,8.56,0,0,0-4.79,3.35s-5.51-1.43-8.86-4.55-6.22-12.92-6.22-12.92Z" style="fill: rgb(255, 255, 255); stroke: rgb(38, 50, 56); stroke-linecap: round; stroke-linejoin: round; transform-origin: 329.371px 170.999px 0px;" id="ele25dijnv3li" class="animable"></path><polygon points="333.37 155.05 342.48 156.94 340.09 158.03 333.07 157.59 333.37 155.05" style="fill: rgb(255, 255, 255); stroke: rgb(38, 50, 56); stroke-linecap: round; stroke-linejoin: round; transform-origin: 337.775px 156.54px 0px;" id="elywf2pxqywe" class="animable"></polygon><path d="M316.41,152.55s-3.24-.31-6.64-.44a1.71,1.71,0,0,0-.23,1.71c.4,1-1,5.41.64,7.52s4.69,2.16,6.38,2.06,2.92-4.93,3-6,.22-2,1.06-2.1.29,2,.57,3.69-.09,4.25,1.5,5.17,3.66,1.64,7.32.57,3.78-7.52,4.09-8.05a10.86,10.86,0,0,1,.94-1.17,1,1,0,0,0-.69-1.64l-2-.14s-9.2-.79-11.23-.67l-2-.21Z" style="fill: rgb(255, 255, 255); stroke: rgb(38, 50, 56); stroke-linecap: round; stroke-linejoin: round; transform-origin: 322.318px 158.687px 0px;" id="el9tc4qppwc1" class="animable"></path><path d="M318.18,161.83a35.19,35.19,0,0,0-8.57-7.21c-.07,1.67-.79,5,.57,6.72,1.66,2.1,4.69,2.16,6.38,2.06C317.17,163.36,317.72,162.7,318.18,161.83Z" style="fill: rgb(38, 50, 56); stroke: rgb(38, 50, 56); stroke-linecap: round; stroke-linejoin: round; transform-origin: 313.769px 159.024px 0px;" id="eldealbmivr2" class="animable"></path><path d="M320.34,156.43s-2.88,5.41-4.23,6.43,3.28,3.24,4.12,3.24" style="fill: rgb(255, 255, 255); stroke: rgb(38, 50, 56); stroke-linecap: round; stroke-linejoin: round; transform-origin: 318.102px 161.265px 0px;" id="elaxhdo1ixir" class="animable"></path><path d="M318.89,169.68s1.34,2.24,5.67-.15" style="fill: none; stroke: rgb(38, 50, 56); stroke-linecap: round; stroke-linejoin: round; transform-origin: 321.725px 170.081px 0px;" id="elqfsump0sly" class="animable"></path><path d="M331.06,164.28a33.43,33.43,0,0,0-9.63-8.48l-.29.65a16.53,16.53,0,0,0,.08,2.59c.27,1.68-.09,4.25,1.5,5.17s3.66,1.64,7.32.57A3.59,3.59,0,0,0,331.06,164.28Z" style="fill: rgb(38, 50, 56); stroke: rgb(38, 50, 56); stroke-linecap: round; stroke-linejoin: round; transform-origin: 326.091px 160.557px 0px;" id="el71bou69fta8" class="animable"></path><polygon points="335.2 404.18 334.42 414.42 332.07 414.42 330.24 408.15 335.2 404.18" style="fill: #407BFF; stroke: rgb(38, 50, 56); stroke-linecap: round; stroke-linejoin: round; transform-origin: 332.72px 409.3px 0px;" id="eljrvz7ac1yma" class="animable"></polygon><path d="M306.79,415.8c2.76.79,14.19.4,17.73-2.75s9.89-5.32,10.68-8.87c.34-1.53-.51-3.11-1.58-5a24.81,24.81,0,0,1-4.16,5.62c-3.66,3.65-11,6.79-11,6.79l-4.62-1.26C311.52,411.86,304,415,306.79,415.8Z" style="fill: #407BFF; stroke: rgb(38, 50, 56); stroke-linecap: round; stroke-linejoin: round; transform-origin: 320.727px 407.666px 0px;" id="elnmd0gabxytg" class="animable"></path></g><g id="freepik--character-1--inject-2" style="transform-origin: 155.34px 272.917px 0px;" class="animable"><path d="M168,187.19s3.11,1.45,2.7,2.08S168,193,168,193l-6,.21s-1-2.49-.62-3.74S167.18,186.36,168,187.19Z" style="fill: rgb(255, 255, 255); stroke: rgb(38, 50, 56); stroke-linecap: round; stroke-linejoin: round; transform-origin: 166.016px 190.097px 0px;" id="el1i87nhniyvs" class="animable"></path><path d="M154.51,193.63s6.43-6.44,7.06-7.27,11.84-1.46,13.71-1.66,2.49,0,1.66,1.24-9.56,2.08-9.56,2.08l-3.11,1.66L162.4,192h2.49c2.08,0,6-.21,6-.21s.63,1.87-1,2.28a26,26,0,0,1-5.82.83c-1.87,0-3.32,1.46-5.19,1.67s-3.33.41-3.33.41S121.69,218.76,120,219.17s-22.22-4.36-22.22-4.36l3.94-10.59,16.83,2.49Z" style="fill: rgb(255, 255, 255); stroke: rgb(38, 50, 56); stroke-linecap: round; stroke-linejoin: round; transform-origin: 137.541px 201.914px 0px;" id="el627jzk4x4s4" class="animable"></path><path d="M75.48,197.48s2.31-5.87,7.67-5S120,203.91,120,203.91l-2.29,16.77s-23.5-3.44-29.93-5.55a20.23,20.23,0,0,1-9.42-6.08" style="fill: #407BFF; stroke: rgb(38, 50, 56); stroke-linecap: round; stroke-linejoin: round; transform-origin: 97.74px 206.536px 0px;" id="el6zafioq249p" class="animable"></path><path d="M255.92,412.76c0,2.6-46.54,4.7-104,4.7s-104-2.1-104-4.7,46.54-4.7,104-4.7S255.92,410.17,255.92,412.76Z" style="fill: rgb(38, 50, 56); transform-origin: 151.92px 412.76px 0px;" id="el5rjlk9jz0ue" class="animable"></path><path d="M110,316.09a302.06,302.06,0,0,1-1.85,31.46c-1.13,9.35-2,18.75-2.62,28.14-.35,5-1,9.94-1,14.93,0,2.09-.36,8.47,1.29,10.13a49.29,49.29,0,0,0,6,5.09c2.78,1.85,11.1,3.24,9.72,5.55s-20.82-.93-20.82-.93-4.16,1.39-6.48-1.38,2.78-8.79,3.24-13.88,0-17.12-1.39-34.23,1.39-29.15,1.39-29.15l-1.85-16.19Z" style="fill: rgb(255, 255, 255); stroke: rgb(38, 50, 56); stroke-linecap: round; stroke-linejoin: round; transform-origin: 107.666px 363.925px 0px;" id="elz85ovwi02ug" class="animable"></path><path d="M103,402a32.6,32.6,0,0,1-2.16,2.47s-3.47-1.49-5.69-2.28C94,405,93,407.53,94.24,409.08c2.32,2.77,6.48,1.38,6.48,1.38s19.43,3.24,20.82.93-6.94-3.7-9.72-5.55a49.29,49.29,0,0,1-6-5.09A3,3,0,0,0,103,402Z" style="fill: rgb(38, 50, 56); stroke: rgb(38, 50, 56); stroke-linecap: round; stroke-linejoin: round; transform-origin: 107.682px 406.474px 0px;" id="elvhbe1s8qivo" class="animable"></path><path d="M101.18,317.94s-.46,15.27-1.39,19.9-1.08,10.74-15.72,46.26c-5.13,12.43-6.33,16-6.33,16s.32,5.74,8,8.77c7,2.77,6.48,4.05,3.24,4.05s-7.24,1.21-12.33-.17-7.22-4-9.53-4.89c-3.8-1.53,1.1-6.83,2.26-8.4,2.66-3.57,4.19-8,5.27-12.31,4.63-18.35,3.86-29,5.71-37.32a37.16,37.16,0,0,1,6.93-14.34l-3.23-16.65Z" style="fill: rgb(255, 255, 255); stroke: rgb(38, 50, 56); stroke-linecap: round; stroke-linejoin: round; transform-origin: 83.4399px 365.675px 0px;" id="elze5zdc6eesh" class="animable"></path><path d="M89,413c3.24,0,3.77-1.28-3.24-4.05-7.69-3-8-8.77-8-8.77l.23-.63a2.18,2.18,0,0,0-2.08.63,12.18,12.18,0,0,1-2.77,2.16l-3.86-2.63c-1.34,1.73-5.82,6.75-2.13,8.23,2.31.93,4.45,3.5,9.53,4.89S85.75,413,89,413Z" style="fill: rgb(38, 50, 56); stroke: rgb(38, 50, 56); stroke-linecap: round; stroke-linejoin: round; transform-origin: 78.5081px 406.494px 0px;" id="eld44f3ds2xpk" class="animable"></path><path d="M91.56,178.1s5.86,8.36,12.45,17.3,8.13,12.62,6.53,18-6.24,13.21-6,16.12,3.6,8.62-.91,10.2c-10.15,3.56-21.4-2.77-21.4-2.77s-3.45-10.79-7-24-.38-23.52,3.34-26.93S87.79,173.63,91.56,178.1Z" style="fill: #407BFF; stroke: rgb(38, 50, 56); stroke-linecap: round; stroke-linejoin: round; transform-origin: 92.4025px 208.842px 0px;" id="el1odczgkivtf" class="animable"></path><circle cx="76.9" cy="138.97" r="9.92" style="fill: rgb(38, 50, 56); stroke: rgb(38, 50, 56); stroke-linecap: round; stroke-linejoin: round; transform-origin: 76.9px 138.97px 0px;" id="eltwgt5splus" class="animable"></circle><path d="M116.4,147.2s6.72-.64,7.68-5.76-7-10.23-10.23-10.23a11.08,11.08,0,0,1-4.48-.64s-8.64-4.48-17.92-.64S79.3,142.72,81.22,150.4s7.35,15.36,15,16S116.4,147.2,116.4,147.2Z" style="fill: rgb(38, 50, 56); stroke: rgb(38, 50, 56); stroke-linecap: round; stroke-linejoin: round; transform-origin: 102.407px 147.395px 0px;" id="elhgz9yhrogv" class="animable"></path><path d="M111.47,135.38a23.88,23.88,0,0,1-11.6,10.87c-8.33,3.62-17,4.35-17.75,0" style="fill: none; stroke: rgb(255, 255, 255); stroke-linecap: round; stroke-linejoin: round; transform-origin: 96.795px 142.313px 0px;" id="elg2wb3jxe39" class="animable"></path><path d="M104.22,133.21s-5.8,12.68-14.49,12.68" style="fill: none; stroke: rgb(255, 255, 255); stroke-linecap: round; stroke-linejoin: round; transform-origin: 96.975px 139.55px 0px;" id="el6x3cogik2ze" class="animable"></path><path d="M112.31,137.62s10-5.86,8.94,3.92" style="fill: none; stroke: rgb(255, 255, 255); stroke-linecap: round; stroke-linejoin: round; transform-origin: 116.819px 138.709px 0px;" id="el7ou51hvc40q" class="animable"></path><path d="M84.65,133.93s-4.53,6.72-4,11.59" style="fill: none; stroke: rgb(255, 255, 255); stroke-linecap: round; stroke-linejoin: round; transform-origin: 82.6284px 139.725px 0px;" id="elnsph43k42a" class="animable"></path><path d="M103.93,171.52a28,28,0,0,0-2.72,9.22,20.51,20.51,0,0,0,1.05,7.92l-10.78-11.3s.73-3.2,2-8.41,1.6-7.57,1.6-7.57Z" style="fill: rgb(255, 255, 255); stroke: rgb(38, 50, 56); stroke-linecap: round; stroke-linejoin: round; transform-origin: 97.705px 175.02px 0px;" id="el3m301qsyeca" class="animable"></path><polygon points="90.25 172.65 103.18 184.78 101.94 196.28 85.61 178.36 90.25 172.65" style="fill: rgb(255, 255, 255); stroke: rgb(38, 50, 56); stroke-linecap: round; stroke-linejoin: round; transform-origin: 94.395px 184.465px 0px;" id="elhoven9g9azq" class="animable"></polygon><path d="M112.31,137.62s5.75,4,6.89,9-.17,8.06,1,10.9,3.73,3.49,1.81,4.43-4.47,2.1-4.47,2.1S115.07,173.3,114,175s-4,.67-7.65-1-11.06-6.85-11.75-8.44a36.18,36.18,0,0,1-1.29-3.76S112.66,150.83,112.31,137.62Z" style="fill: rgb(255, 255, 255); stroke: rgb(38, 50, 56); stroke-linecap: round; stroke-linejoin: round; transform-origin: 108.006px 156.746px 0px;" id="elwk4ykjpy0ar" class="animable"></path><path d="M98.49,159s-2.88-8-6.4-5.44-2.47,6.34,1.17,8.13,4.91.19,4.91.19" style="fill: rgb(255, 255, 255); stroke: rgb(38, 50, 56); stroke-linecap: round; stroke-linejoin: round; transform-origin: 94.2082px 157.796px 0px;" id="el3xyi1e6h7jv" class="animable"></path><path d="M114.32,155.82c-.12.89.08,1.65.45,1.69s.77-.63.88-1.51-.08-1.65-.45-1.7S114.43,154.93,114.32,155.82Z" style="fill: rgb(38, 50, 56); transform-origin: 114.983px 155.905px 0px;" id="el2z06g2cio5u" class="animable"></path><path d="M115.34,166.58s-3.67-1-4.73-3.35" style="fill: none; stroke: rgb(38, 50, 56); stroke-linecap: round; stroke-linejoin: round; transform-origin: 112.975px 164.905px 0px;" id="elfz88d8jogcq" class="animable"></path><path d="M117.93,151.12s-1.78-3-3.9-1.33" style="fill: none; stroke: rgb(38, 50, 56); stroke-linecap: round; stroke-linejoin: round; stroke-width: 0.75px; transform-origin: 115.98px 150.202px 0px;" id="ellpb2akajx0m" class="animable"></path><path d="M82.22,237a284.43,284.43,0,0,0-11.11,26.83c-4.62,13.42,10.64,58.75,10.64,58.75h31.46V268.45c0-22.21-7.09-32.39-7.09-32.39S98.41,239.76,82.22,237Z" style="fill: rgb(38, 50, 56); stroke: rgb(38, 50, 56); stroke-linecap: round; stroke-linejoin: round; transform-origin: 91.7244px 279.32px 0px;" id="elltggarbpje" class="animable"></path><polygon points="180.12 224.24 175.01 224.24 175.01 194.86 180.12 190.21 180.12 224.24" style="fill: rgb(38, 50, 56); stroke: rgb(38, 50, 56); stroke-linecap: round; stroke-linejoin: round; transform-origin: 177.565px 207.225px 0px;" id="elx2ybfmble2s" class="animable"></polygon><g id="el6sx8uv3m9b"><rect x="176.29" y="159.09" width="5.75" height="58.12" style="fill: rgb(38, 50, 56); stroke: rgb(38, 50, 56); stroke-linecap: round; stroke-linejoin: round; transform-origin: 179.165px 188.15px 0px; transform: rotate(34.0075deg);" class="animable" id="el3fc7ryoztxa"></rect></g><path d="M209.59,200.47l-34.9,6.21v13.41h46.63v-9.8A10,10,0,0,0,209.59,200.47Z" style="fill: rgb(38, 50, 56); stroke: rgb(38, 50, 56); stroke-linecap: round; stroke-linejoin: round; transform-origin: 198.005px 210.205px 0px;" id="elgurqtp7aelo" class="animable"></path><rect x="140.84" y="218.18" width="80.48" height="16.61" style="fill: rgb(38, 50, 56); stroke: rgb(38, 50, 56); stroke-linecap: round; stroke-linejoin: round; transform-origin: 181.08px 226.485px 0px;" id="el1splp408k8i" class="animable"></rect><rect x="112.55" y="241.47" width="142.96" height="172.25" style="fill: #407BFF; stroke: rgb(38, 50, 56); stroke-linecap: round; stroke-linejoin: round; transform-origin: 184.03px 327.595px 0px;" id="el1ks3o37djj6" class="animable"></rect><rect x="112.55" y="241.47" width="142.96" height="6.73" style="fill: rgb(38, 50, 56); stroke: rgb(38, 50, 56); stroke-linecap: round; stroke-linejoin: round; transform-origin: 184.03px 244.835px 0px;" id="elivqjeimrmpm" class="animable"></rect><path d="M108.82,213.72l6.07,6.43,49.65,10.71,12.5-3.21,9.64,6.78c-2.5.72-9.29-2.14-9.29-2.14s-3.57,2.5-7.14,2.5H159.54s-44.29-3.93-46.43-3.93-13.93-9.28-13.93-9.28Z" style="fill: rgb(255, 255, 255); stroke: rgb(38, 50, 56); stroke-linecap: round; stroke-linejoin: round; transform-origin: 142.93px 224.255px 0px;" id="el38rnnbtp9on" class="animable"></path><path d="M80.08,186.81s4.94-3.93,9.13-.45,23.05,26.38,23.05,26.38l-9.33,13.39s-16.51-12.84-21-17.88a20.28,20.28,0,0,1-5.12-10" style="fill: #407BFF; stroke: rgb(38, 50, 56); stroke-linecap: round; stroke-linejoin: round; transform-origin: 94.535px 205.526px 0px;" id="elr68nbty1no" class="animable"></path><rect x="108.19" y="233.96" width="154.57" height="9.39" style="fill: rgb(255, 255, 255); stroke: rgb(38, 50, 56); stroke-linecap: round; stroke-linejoin: round; transform-origin: 185.475px 238.655px 0px;" id="elarpu62n14pu" class="animable"></rect></g><defs>     <filter id="active" height="200%">         <feMorphology in="SourceAlpha" result="DILATED" operator="dilate" radius="2"></feMorphology>                <feFlood flood-color="#32DFEC" flood-opacity="1" result="PINK"></feFlood>        <feComposite in="PINK" in2="DILATED" operator="in" result="OUTLINE"></feComposite>        <feMerge>            <feMergeNode in="OUTLINE"></feMergeNode>            <feMergeNode in="SourceGraphic"></feMergeNode>        </feMerge>    </filter>    <filter id="hover" height="200%">        <feMorphology in="SourceAlpha" result="DILATED" operator="dilate" radius="2"></feMorphology>                <feFlood flood-color="#ff0000" flood-opacity="0.5" result="PINK"></feFlood>        <feComposite in="PINK" in2="DILATED" operator="in" result="OUTLINE"></feComposite>        <feMerge>            <feMergeNode in="OUTLINE"></feMergeNode>            <feMergeNode in="SourceGraphic"></feMergeNode>        </feMerge>            <feColorMatrix type="matrix" values="0   0   0   0   0                0   1   0   0   0                0   0   0   0   0                0   0   0   1   0 "></feColorMatrix>    </filter></defs></svg>